<?xml version="1.0" standalone="no"?>
<!DOCTYPE svg PUBLIC "-//W3C//DTD SVG 20010904//EN"
 "http://www.w3.org/TR/2001/REC-SVG-20010904/DTD/svg10.dtd">
<svg version="1.0" xmlns="http://www.w3.org/2000/svg"
 width="198.000000pt" height="198.000000pt" viewBox="0 0 198.000000 198.000000"
 preserveAspectRatio="xMidYMid meet">
<metadata>
Created by potrace 1.11, written by Peter Selinger 2001-2013
</metadata>
<g transform="translate(0.000000,198.000000) scale(0.100000,-0.100000)"
fill="#000000" stroke="none">
<path d="M0 990 l0 -990 990 0 990 0 0 990 0 990 -990 0 -990 0 0 -990z m1235
115 c0 -25 -4 -31 -26 -33 -35 -4 -54 20 -39 48 8 15 19 20 38 18 23 -2 27 -8
27 -33z m-805 10 c0 -4 -19 -32 -41 -64 l-41 -59 36 -61 c38 -66 40 -71 28
-71 -14 0 -83 130 -76 143 38 68 94 135 94 112z m1008 -130 c-34 -66 -63 -115
-65 -110 -3 9 19 56 105 220 8 17 17 26 18 20 2 -5 -24 -64 -58 -130z m183 54
l31 -49 -38 -65 c-21 -36 -42 -65 -46 -65 -13 0 -9 10 28 71 l37 59 -39 57
c-21 32 -41 63 -43 68 -9 23 41 -32 70 -76z m-922 -29 c-1 -85 -18 -90 -18 -5
-1 55 2 75 9 65 5 -8 9 -35 9 -60z m301 2 c0 -31 -5 -64 -10 -72 -7 -10 -10 9
-10 63 0 50 4 76 10 72 6 -3 10 -32 10 -63z m-427 21 c-1 -11 4 -27 12 -33 8
-7 15 -17 15 -23 0 -5 -9 -2 -21 8 -20 19 -20 18 -44 -10 -32 -39 -32 -24 0
23 l25 37 -30 8 c-42 11 -38 19 8 15 31 -3 37 -6 35 -25z m285 -53 c34 0 43
-3 32 -10 -8 -5 -31 -10 -51 -10 -43 0 -53 16 -42 69 l8 36 3 -42 3 -43 47 0z
m322 39 c0 -14 7 -19 25 -19 20 0 25 5 26 28 l2 27 4 -26 c3 -22 12 -27 51
-36 42 -9 32 -10 -80 -12 -80 0 -128 3 -128 9 0 6 18 10 40 10 36 0 40 2 40
26 0 14 4 23 10 19 6 -3 10 -15 10 -26z m58 -108 c3 -15 -3 -30 -14 -38 -25
-18 -31 -17 -50 12 -13 21 -14 28 -4 41 20 24 64 14 68 -15z"/>
<path d="M1191 1116 c-14 -17 -7 -36 14 -36 22 0 29 20 13 36 -13 13 -16 13
-27 0z"/>
<path d="M1184 915 c-7 -18 3 -35 21 -35 15 0 28 27 19 41 -8 14 -34 11 -40
-6z"/>
</g>
</svg>
